<svg width="30" height="30" viewBox="0 0 30 30" fill="none" xmlns="http://www.w3.org/2000/svg">
<path d="M25.4125 5.8375L23.3375 3.75L21.25 5.8375L19.1625 3.75L17.0875 5.8375L15 3.75L12.9125 5.8375L10.8375 3.75L8.75 5.8375L6.6625 3.75L4.5875 5.8375L2.5 3.75V23.75C2.5 25.1375 3.625 26.25 5 26.25H16C15.3625 25.15 15 23.8625 15 22.5C15 20.9625 15.4625 19.5375 16.25 18.35V16.25H18.35C19.5375 15.4625 20.9625 15 22.5 15C24.4125 15 26.1625 15.725 27.5 16.875V3.75L25.4125 5.8375ZM13.75 23.75H5V16.25H13.75V23.75ZM25 13.75H5V10H25V13.75ZM20.9375 26.45L17.5 22.7L18.95 21.25L20.9375 23.2375L25.425 18.75L26.875 20.5125L20.9375 26.45Z" fill="url(#paint0_linear_1965_10039)"/>
<defs>
<linearGradient id="paint0_linear_1965_10039" x1="2.5" y1="15.1" x2="27.5" y2="15.1" gradientUnits="userSpaceOnUse">
<stop stop-color="#F302C9"/>
<stop offset="1" stop-color="#8D0175"/>
</linearGradient>
</defs>
</svg>
